<svg id="Layer_1" data-name="Layer 1" xmlns="http://www.w3.org/2000/svg" xmlns:xlink="http://www.w3.org/1999/xlink" viewBox="0 0 105.67 110.8"><defs><linearGradient id="New_Gradient_Swatch_2" x1="21.06" y1="71.2" x2="126.73" y2="71.2" gradientUnits="userSpaceOnUse"><stop offset="0" stop-color="#5570ae"/><stop offset="0.5" stop-color="#bc5d8a"/><stop offset="0.75" stop-color="#dd5d4a"/><stop offset="1" stop-color="#e6833a"/></linearGradient></defs><title>Untitled-2</title><path d="M58.94,15.8H21.06v3.6H38V66.2h4V19.4h17Zm67.79,70.37V83H102.91A56.66,56.66,0,0,0,97.4,73.2l-3.13,1.2A54.52,54.52,0,0,1,99.54,83H74.46v3.13h38.41a56.44,56.44,0,0,1-12.24,23.09A57.56,57.56,0,0,1,87.91,88.49L85,89.81a62.24,62.24,0,0,0,13.24,21.38q-8.93,8.18-24,12.6l2.28,2.64a67.6,67.6,0,0,0,24.06-13,66.83,66.83,0,0,0,24,13.15l2.17-2.81Q112,119.33,103,111.31q9-10,13-25.14ZM84.8,32.52l-28,66h3.59l28-66Z" transform="translate(-21.06 -15.8)" style="fill:url(#New_Gradient_Swatch_2)"/></svg>